<svg xmlns="http://www.w3.org/2000/svg" viewBox="0 0 32 32">
  <defs>
    <linearGradient id="g" x1="0%" y1="0%" x2="100%" y2="100%">
      <stop offset="0%" stop-color="#F5A623"/>
      <stop offset="100%" stop-color="#F7C948"/>
    </linearGradient>
  </defs>
  <rect width="32" height="32" rx="7" fill="#1A1A2E"/>
  <!-- Bee body -->
  <ellipse cx="16" cy="17" rx="6.5" ry="7" fill="url(#g)"/>
  <!-- Stripes -->
  <rect x="9.5" y="14" width="13" height="2" rx="1" fill="#1A1A2E" opacity="0.7"/>
  <rect x="9.5" y="18" width="13" height="2" rx="1" fill="#1A1A2E" opacity="0.7"/>
  <!-- Head -->
  <circle cx="16" cy="9" r="4" fill="url(#g)"/>
  <!-- Eyes -->
  <circle cx="14.2" cy="8.5" r="1.2" fill="#1A1A2E"/>
  <circle cx="17.8" cy="8.5" r="1.2" fill="#1A1A2E"/>
  <circle cx="14.5" cy="8.2" r="0.4" fill="white"/>
  <circle cx="18.1" cy="8.2" r="0.4" fill="white"/>
  <!-- Antennae -->
  <path d="M14 5.5Q12 2 10 3" fill="none" stroke="#F5A623" stroke-width="1.2" stroke-linecap="round"/>
  <path d="M18 5.5Q20 2 22 3" fill="none" stroke="#F5A623" stroke-width="1.2" stroke-linecap="round"/>
  <circle cx="10" cy="3" r="1" fill="#F7C948"/>
  <circle cx="22" cy="3" r="1" fill="#F7C948"/>
  <!-- Wings -->
  <ellipse cx="10.5" cy="13" rx="3.5" ry="2.5" fill="white" opacity="0.5" transform="rotate(-20 10.5 13)"/>
  <ellipse cx="21.5" cy="13" rx="3.5" ry="2.5" fill="white" opacity="0.5" transform="rotate(20 21.5 13)"/>
  <!-- DB symbol on body -->
  <ellipse cx="16" cy="21.5" rx="3" ry="1.2" fill="none" stroke="#1A1A2E" stroke-width="0.8" opacity="0.5"/>
  <path d="M13 21.5v-2c0-.66 1.34-1.2 3-1.2s3 .54 3 1.2v2" fill="none" stroke="#1A1A2E" stroke-width="0.8" opacity="0.5"/>
</svg>
